<?xml version="1.0" encoding="UTF-8" standalone="no"?>
<!-- Uploaded to: SVG Repo, www.svgrepo.com, Generator: SVG Repo Mixer Tools -->

<svg
   width="800px"
   height="800px"
   viewBox="0 0 16 16"
   version="1.1"
   id="svg1"
   sodipodi:docname="go-home-svgrepo-com.svg"
   inkscape:version="1.4.3 (0d15f75042, 2025-12-25)"
   xmlns:inkscape="http://www.inkscape.org/namespaces/inkscape"
   xmlns:sodipodi="http://sodipodi.sourceforge.net/DTD/sodipodi-0.dtd"
   xmlns="http://www.w3.org/2000/svg"
   xmlns:svg="http://www.w3.org/2000/svg">
  <defs
     id="defs1" />
  <sodipodi:namedview
     id="namedview1"
     pagecolor="#ffffff"
     bordercolor="#000000"
     borderopacity="0.25"
     inkscape:showpageshadow="2"
     inkscape:pageopacity="0.0"
     inkscape:pagecheckerboard="0"
     inkscape:deskcolor="#d1d1d1"
     inkscape:zoom="1.1325"
     inkscape:cx="400"
     inkscape:cy="400"
     inkscape:window-width="1909"
     inkscape:window-height="1158"
     inkscape:window-x="0"
     inkscape:window-y="0"
     inkscape:window-maximized="0"
     inkscape:current-layer="svg1" />
  <path
     d="m 8 1 c -0.207031 0 -0.410156 0.066406 -0.578125 0.1875 l -7 5 c -0.453125 0.320312 -0.554687 0.941406 -0.234375 1.394531 c 0.1875 0.261719 0.488281 0.417969 0.8125 0.417969 v 4 c 0 1.644531 1.355469 3 3 3 h 8 c 1.644531 0 3 -1.320312 3 -3 v -4 c 0.324219 0 0.625 -0.15625 0.816406 -0.417969 c 0.320313 -0.453125 0.214844 -1.074219 -0.234375 -1.394531 l -7 -5 c -0.167969 -0.121094 -0.375 -0.1875 -0.582031 -0.1875 z m 0 2.230469 l 5 3.570312 v 5.199219 c 0 0.5625 -0.4375 1 -1 1 h -3 v -4 c 0 -0.554688 -0.445312 -1 -1 -1 h -1 c -0.554688 0 -1 0.445312 -1 1 v 4 h -2 c -0.5625 0 -1 -0.4375 -1 -1 v -5.199219 z m 0 0"
     fill="#2e3436"
     id="path1"
     style="fill:#d0d0d0;fill-opacity:1" />
</svg>
