<?xml version="1.0" encoding="UTF-8" standalone="no"?>
<!-- Uploaded to: SVG Repo, www.svgrepo.com, Generator: SVG Repo Mixer Tools -->

<svg
   width="800"
   height="800"
   viewBox="0 0 16 16"
   version="1.1"
   id="svg1"
   xmlns="http://www.w3.org/2000/svg"
   xmlns:svg="http://www.w3.org/2000/svg">
  <defs
     id="defs1" />
  <path
     d="M 8,0 C 8.554688,0 9,0.445312 9,1 V 7.5 C 9,7.5 9,8 9.5,8 10,8 10,7.5 10,7.5 V 3 c 0,-0.554688 0.445312,-1 1,-1 0.554688,0 1,0.445312 1,1 v 8.5 c 0,0.5 0.5,0.5 0.5,0.5 l 1.792969,-1.707031 c 0.1875,-0.195313 0.445312,-0.300781 0.71875,-0.304688 1.082031,0.085938 1.144531,1.269531 0.695312,1.71875 l -3,3 C 12,15.5 10.949219,15.996094 10,16 H 4 C 1,16 1,13 1,13 V 5 C 1,4.445312 1.445312,4 2,4 2.554688,4 3,4.445312 3,5 V 8.5 C 3,8.5 3,9 3.5,9 4,9 4,8.5 4,8.5 V 2 C 4,1.445312 4.445312,1 5,1 5.554688,1 6,1.445312 6,2 V 7.5 C 6,7.5 6,8 6.5,8 7,8 7,7.5 7,7.5 V 1 C 7,0.445312 7.445312,0 8,0 Z m 0,0"
     fill="#2e3436"
     id="path1"
     style="fill:#ebdbb2;fill-opacity:1" />
</svg>
