<?xml version="1.0" encoding="UTF-8" standalone="no"?>
<!-- Created with Inkscape (http://www.inkscape.org/) -->

<svg
   width="512"
   height="512"
   viewBox="0 0 135.46666 135.46667"
   version="1.1"
   id="svg1"
   xml:space="preserve"
   xmlns="http://www.w3.org/2000/svg"
   xmlns:svg="http://www.w3.org/2000/svg"
   xmlns:rdf="http://www.w3.org/1999/02/22-rdf-syntax-ns#"
   xmlns:cc="http://creativecommons.org/ns#"
   xmlns:dc="http://purl.org/dc/elements/1.1/"><defs
     id="defs1" /><metadata
     id="metadata1"><rdf:RDF><cc:Work
         rdf:about=""><dc:format>image/svg+xml</dc:format><dc:type
           rdf:resource="http://purl.org/dc/dcmitype/StillImage" /></cc:Work></rdf:RDF></metadata><g
     id="g145"
     style="display:inline"><g
       id="g134"
       transform="translate(7.8849339,0.17522075)"
       style="display:inline;opacity:1;fill:#d0d0d0;fill-opacity:1"><path
         id="path117"
         style="display:inline;fill:#d0d0d0;fill-opacity:1;stroke-width:0.337708"
         d="m 35.583731,18.555936 v 18.057295 l 22.754166,12.101587 36.5125,-6.80992 V 23.847602 l -36.5125,6.809921 z m 56.231709,8.734867 c 0.675613,0 1.081071,0.627291 1.081071,1.401465 0,0.774174 -0.383558,1.401981 -1.081071,1.401981 -0.697513,0 -1.135331,-0.627807 -1.135331,-1.401981 0,-0.774174 0.459721,-1.401465 1.135331,-1.401465 z m -3.171899,0.60048 c 0.675613,0 1.080554,0.627291 1.080554,1.401465 0,0.774174 -0.383041,1.401982 -1.080554,1.401982 -0.697513,0 -1.135331,-0.627808 -1.135331,-1.401982 0,-0.774174 0.459721,-1.401465 1.135331,-1.401465 z m -3.266984,0.581877 c 0.675613,0 1.080554,0.627807 1.080554,1.401981 0,0.774174 -0.383041,1.401982 -1.080554,1.401982 -0.697513,0 -1.135848,-0.627808 -1.135848,-1.401982 0,-0.774174 0.460238,-1.401981 1.135848,-1.401981 z" /><path
         id="path118"
         style="display:inline;fill:#d0d0d0;fill-opacity:1;stroke-width:0.337708"
         d="m 35.583731,38.706127 v 4.340303 c 4.487117,1.32078 8.929343,2.795607 13.289111,4.491716 1.591016,0.596072 3.175708,1.286356 4.51652,2.349211 1.359599,1.044763 2.386699,2.52958 2.826184,4.191475 0.429211,1.659623 0.321634,3.409694 -0.0088,5.076693 -0.30142,1.449826 -0.70472,2.87936 -1.208195,4.27209 -0.370121,1.012223 -0.811088,2.005839 -1.337386,2.950208 l 4.676717,2.487187 36.5125,-6.809921 V 43.997794 l -36.5125,6.80992 z m 56.231709,8.822717 c 0.675613,0 1.081071,0.627291 1.081071,1.401465 0,0.774174 -0.383558,1.401982 -1.081071,1.401982 -0.697513,0 -1.135331,-0.627808 -1.135331,-1.401982 0,-0.774174 0.459721,-1.401465 1.135331,-1.401465 z m -3.171899,0.60048 c 0.675613,0 1.080554,0.627291 1.080554,1.401465 0,0.774174 -0.383041,1.401982 -1.080554,1.401982 -0.697513,0 -1.135331,-0.627808 -1.135331,-1.401982 0,-0.774174 0.459721,-1.401465 1.135331,-1.401465 z m -3.266984,0.581877 c 0.675613,0 1.080554,0.627808 1.080554,1.401982 0,0.774174 -0.383041,1.401464 -1.080554,1.401464 -0.697513,0 -1.135848,-0.62729 -1.135848,-1.401464 0,-0.774174 0.460238,-1.401982 1.135848,-1.401982 z" /><path
         id="path119"
         style="display:inline;fill:#d0d0d0;fill-opacity:1;stroke-width:0.337708"
         d="m 94.850397,64.674051 -36.5125,6.80992 -5.945373,-3.162081 c -0.353669,0.462749 -0.734983,0.904654 -1.146183,1.32085 -1.527139,1.558501 -3.524266,2.674372 -5.680274,3.054077 -2.167454,0.385548 -4.4116,0.06406 -6.475057,-0.658358 -1.07642,-0.388038 -2.128384,-0.840644 -3.187402,-1.273307 -0.106583,-0.04452 -0.213304,-0.08871 -0.319877,-0.133325 v 6.807853 l 22.754166,12.101587 36.5125,-6.80992 z m -3.034957,3.180168 c 0.675613,0 1.081071,0.627807 1.081071,1.401981 0,0.774174 -0.383558,1.401465 -1.081071,1.401465 -0.697513,0 -1.135331,-0.627291 -1.135331,-1.401465 0,-0.774174 0.459721,-1.401981 1.135331,-1.401981 z m -3.171899,0.60048 c 0.675613,0 1.080554,0.627807 1.080554,1.401981 0,0.774174 -0.383041,1.401465 -1.080554,1.401465 -0.697513,0 -1.135331,-0.627291 -1.135331,-1.401465 0,-0.774174 0.459721,-1.401981 1.135331,-1.401981 z m -3.266984,0.582393 c 0.675613,0 1.080554,0.627291 1.080554,1.401465 0,0.774174 -0.383041,1.401982 -1.080554,1.401982 -0.697513,0 -1.135848,-0.627808 -1.135848,-1.401982 0,-0.774174 0.460238,-1.401465 1.135848,-1.401465 z" /><path
         id="path120"
         style="display:inline;fill:#d0d0d0;fill-opacity:1;stroke-width:0.337708"
         d="m 72.096375,9.6469563 -36.5125,6.8099207 22.754166,12.101587 36.5125,-6.809921 z" /><path
         id="path121"
         style="display:inline;fill:#d0d0d0;fill-opacity:1;stroke-width:0.497456"
         d="M 22.624392,79.9951 56.142106,97.821277 109.92634,87.789919 V 105.3932 L 56.142106,115.42457 22.624392,97.598375 Z" /><path
         id="path122"
         style="opacity:1;fill:#d0d0d0;fill-opacity:1;stroke-width:0.497456"
         d="M 33.456356,75.884257 22.624459,77.904289 56.14231,95.730591 109.92662,85.699162 97.240576,78.952287 v 5.705078 L 57.72981,92.026424 33.456356,79.116618 Z" /><path
         id="path123"
         style="display:inline;fill:#d0d0d0;fill-opacity:1;stroke-width:0.0497395"
         d="m 22.340782,99.903173 -17.5988589,3.436547 3.517933,1.698 17.5988599,-3.43655 z" /><path
         id="path124"
         style="display:inline;fill:#d0d0d0;fill-opacity:1;stroke-width:0.0497395"
         d="m 27.721362,102.55496 -17.59886,3.43654 3.517934,1.698 17.59886,-3.43655 z" /><path
         id="path125"
         style="display:inline;fill:#d0d0d0;fill-opacity:1;stroke-width:0.0497395"
         d="m 32.802763,105.18327 -17.59886,3.43654 3.517934,1.698 17.59886,-3.43655 z" /><path
         id="path126"
         style="display:inline;fill:#d0d0d0;fill-opacity:1;stroke-width:0.0497395"
         d="m 37.88066,107.81158 -17.59886,3.43654 3.517934,1.698 17.59886,-3.43655 z" /><path
         id="path127"
         style="display:inline;fill:#d0d0d0;fill-opacity:1;stroke-width:0.0497395"
         d="m 42.786841,110.61511 -17.59886,3.43654 3.517934,1.698 17.59886,-3.43655 z" /><path
         id="path128"
         style="display:inline;fill:#d0d0d0;fill-opacity:1;stroke-width:0.0497395"
         d="m 48.218684,113.24342 -17.59886,3.43654 3.517934,1.698 17.598864,-3.43655 z" /><path
         id="path129"
         style="display:inline;fill:#d0d0d0;fill-opacity:1;stroke-width:0.0497395"
         d="m 66.577892,114.78218 -4.369694,0.79071 14.630434,8.048 4.369698,-0.79071 z" /><path
         id="path130"
         style="display:inline;fill:#d0d0d0;fill-opacity:1;stroke-width:0.0497395"
         d="m 75.076098,113.11758 -4.369694,0.79071 14.630434,8.048 4.369698,-0.79071 z" /><path
         id="path131"
         style="display:inline;fill:#d0d0d0;fill-opacity:1;stroke-width:0.0497395"
         d="m 83.661915,111.6282 -4.369694,0.79071 14.630434,8.048 4.369698,-0.79071 z" /><path
         id="path132"
         style="display:inline;fill:#d0d0d0;fill-opacity:1;stroke-width:0.0497395"
         d="m 91.897291,110.22643 -4.369694,0.79071 14.630433,8.048 4.3697,-0.79071 z" /><path
         id="path133"
         style="display:inline;fill:#d0d0d0;fill-opacity:1;stroke-width:0.0497395"
         d="m 99.607004,108.82466 -4.369694,0.79071 14.63043,8.048 4.3697,-0.79071 z" /><path
         id="path134"
         style="display:inline;fill:#d0d0d0;fill-opacity:1;stroke-width:0.0497395"
         d="m 106.09018,107.33528 -4.3697,0.79071 14.63044,8.048 4.3697,-0.79071 z" /></g><g
       style="display:inline;opacity:1;fill:#d0d0d0;fill-opacity:1"
       id="g135"
       transform="matrix(0.16824639,0.07319781,-0.07319781,0.16824639,23.95373,9.8781992)"><path
         d="m 252.472,129.074 c -35.063,1.018 -81.701,5.444 -133.099,14.293 -51.4,8.846 -62.426,-5.467 -67.398,-21.439 -5.63,-18.084 0.212,-27.206 0.212,-27.206 C 85.45,89.317 88.357,68.125 87.524,56.064 84.201,60.229 79.111,62.963 74.89,63.122 71.866,63.232 62.584,53.776 47.616,68.954 48.45,60.64 44.473,55.149 34.362,52.323 23.987,49.41 16.032,63.42 0.223,49.414 c -3.326,44.068 31.594,45.308 31.594,45.308 -14.225,78.259 45.009,118.089 46.028,122.857 1.021,4.759 -15.999,9.523 -12.938,14.298 3.065,4.76 23.83,3.746 36.088,1.354 59.566,15.655 72.466,18.708 143.647,17.031 57.279,-1.369 56.638,-51.767 54.944,-69.499 -3.327,-34.856 -12.051,-52.712 -47.114,-51.689 z"
         id="path135"
         style="fill:#d0d0d0;fill-opacity:1" /></g></g></svg>
