<?xml version="1.0" encoding="UTF-8" standalone="no"?>
<!-- Uploaded to: SVG Repo, www.svgrepo.com, Generator: SVG Repo Mixer Tools -->

<svg
   fill="#000000"
   version="1.1"
   id="Layer_1"
   viewBox="0 0 512 512"
   xml:space="preserve"
   sodipodi:docname="ram.svg"
   inkscape:version="1.4.3 (0d15f75042, 2025-12-25)"
   xmlns:inkscape="http://www.inkscape.org/namespaces/inkscape"
   xmlns:sodipodi="http://sodipodi.sourceforge.net/DTD/sodipodi-0.dtd"
   xmlns="http://www.w3.org/2000/svg"
   xmlns:svg="http://www.w3.org/2000/svg"><defs
   id="defs5" /><sodipodi:namedview
   id="namedview5"
   pagecolor="#ffffff"
   bordercolor="#000000"
   borderopacity="0.25"
   inkscape:showpageshadow="2"
   inkscape:pageopacity="0.0"
   inkscape:pagecheckerboard="0"
   inkscape:deskcolor="#d1d1d1"
   inkscape:zoom="1.7695312"
   inkscape:cx="256"
   inkscape:cy="256"
   inkscape:window-width="1909"
   inkscape:window-height="1158"
   inkscape:window-x="0"
   inkscape:window-y="0"
   inkscape:window-maximized="0"
   inkscape:current-layer="Layer_1" />
<g
   id="g5"
   style="fill:#d0d0d0;fill-opacity:1">
	<g
   id="g4"
   style="fill:#d0d0d0;fill-opacity:1">
		<g
   id="g3"
   style="fill:#d0d0d0;fill-opacity:1">
			<path
   d="M409.707,0H320c-11.782,0-21.333,9.551-21.333,21.333c0,10.741-7.721,21.333-21.333,21.333     c-17.219,0-21.333-6.402-21.333-21.333C256,9.551,246.449,0,234.667,0h-64H85.333C73.551,0,64,9.551,64,21.333v469.333     C64,502.449,73.551,512,85.333,512h85.333h64c11.782,0,21.333-9.551,21.333-21.333c0-14.931,4.114-21.333,21.333-21.333     c13.612,0,21.333,10.592,21.333,21.333c0,11.782,9.551,21.333,21.333,21.333h89.707C431.891,512,448,490.152,448,469.333V42.667     C448,21.848,431.891,0,409.707,0z M106.667,42.667h42.667v426.667h-42.667V42.667z M337.808,469.333     c-7.948-23.469-29.056-42.667-60.474-42.667c-36.108,0-55.09,17.704-61.484,42.667H192V42.667h23.849     c6.394,24.963,25.376,42.667,61.484,42.667c31.418,0,52.526-19.197,60.474-42.667h71.899c-3.862,0-4.329,0.286-4.373,0.15     v106.516H384c-11.782,0-21.333,9.551-21.333,21.333c0,11.782,9.551,21.333,21.333,21.333h21.333v42.667h-64     C329.551,234.667,320,244.218,320,256s9.551,21.333,21.333,21.333h64V320H384c-11.782,0-21.333,9.551-21.333,21.333     c0,11.782,9.551,21.333,21.333,21.333h21.333v106.516c0.045-0.135,0.511,0.15,4.373,0.15H337.808z"
   id="path1"
   style="fill:#d0d0d0;fill-opacity:1" />
			<rect
   x="234.667"
   y="149.333"
   width="42.667"
   height="42.667"
   id="rect1"
   style="fill:#d0d0d0;fill-opacity:1" />
			<rect
   x="234.667"
   y="234.667"
   width="42.667"
   height="42.667"
   id="rect2"
   style="fill:#d0d0d0;fill-opacity:1" />
			<rect
   x="234.667"
   y="320"
   width="42.667"
   height="42.667"
   id="rect3"
   style="fill:#d0d0d0;fill-opacity:1" />
		</g>
	</g>
</g>
</svg>
