<?xml version="1.0" encoding="UTF-8" standalone="no"?>
<!-- Uploaded to: SVG Repo, www.svgrepo.com, Generator: SVG Repo Mixer Tools -->

<svg
   width="800"
   height="800"
   viewBox="0 0 16 16"
   version="1.1"
   id="svg1"
   xmlns="http://www.w3.org/2000/svg"
   xmlns:svg="http://www.w3.org/2000/svg">
  <defs
     id="defs1" />
  <path
     d="M 4,0 C 2.355469,0 1,1.355469 1,3 v 10 c 0,1.644531 1.355469,3 3,3 h 8 c 1.644531,0 3,-1.355469 3,-3 V 3 C 15,1.355469 13.644531,0 12,0 Z m 0,2 h 8 c 0.570312,0 1,0.429688 1,1 v 9 c 0,0.570312 -0.429688,1 -1,1 H 4 C 3.445312,13 3,12.554688 3,12 V 3 C 3,2.445312 3.445312,2 4,2 Z M 8,3 C 5.789062,3 4,4.789062 4,7 v 4 H 8 C 10.5,11 12,9.210938 12,7 12,4.789062 10.210938,3 8,3 Z M 8,5 C 9.105469,5 10,5.894531 10,7 10,8.105469 9.105469,9 8,9 6.894531,9 6,8.105469 6,7 6,5.894531 6.894531,5 8,5 Z m 0,0"
     fill="#2e3436"
     id="path1"
     style="fill:#d0d0d0;fill-opacity:1" />
</svg>
